<svg id="Layer_1" data-name="Layer 1" xmlns="http://www.w3.org/2000/svg" viewBox="0 0 154.84 36.72"><defs><style>.cls-1{isolation:isolate;}.cls-2{fill:#fff;}</style></defs><g class="cls-1"><path class="cls-2" d="M43.8,18.43A10.71,10.71,0,0,1,33,27.33,11.4,11.4,0,0,1,21.33,16,11.28,11.28,0,0,1,32.73,4.67a10.11,10.11,0,0,1,7.32,2.69V5.12h3.59v8.45H40.05A7,7,0,0,0,33,8.35,7.4,7.4,0,0,0,25.37,16,7.43,7.43,0,0,0,33,23.65a6.7,6.7,0,0,0,6.85-5.22Z" transform="translate(0 -2.26)"/></g><g class="cls-1"><path class="cls-2" d="M60.66,23.49h2.43v3.39H57V25.82a7.78,7.78,0,0,1-12.25-6.49,7.75,7.75,0,0,1,7.61-7.94A7.84,7.84,0,0,1,57,12.8V11.75h6.11v3.39H60.66ZM57,22.27V16.35a5.59,5.59,0,0,0-4.09-1.76,4.59,4.59,0,0,0-4.48,4.74A4.58,4.58,0,0,0,52.89,24,5.59,5.59,0,0,0,57,22.27Z" transform="translate(0 -2.26)"/></g><g class="cls-1"><path class="cls-2" d="M78.25,15.26a20.88,20.88,0,0,0-6.2,1.09v7.14h3.77v3.39H66V23.49h2.4V15.14H66V11.75h6.08v1.63a10.41,10.41,0,0,1,6.2-1.89Z" transform="translate(0 -2.26)"/></g><g class="cls-1"><path class="cls-2" d="M110,26.88h-8.54V23.49h2.4V18.75c0-2.65-1.35-4.12-3.65-4.12a4.22,4.22,0,0,0-3.49,2.08,8.19,8.19,0,0,1,.19,1.82v5h2.43v3.39H90.8V23.49h2.4V18.75c0-2.65-1.31-4.12-3.65-4.12a4.13,4.13,0,0,0-3.29,2v6.82h2.46v3.39H80.18V23.49h2.4V15.14h-2.4V11.75h6.08v1.08a5.26,5.26,0,0,1,4.06-1.57,6.23,6.23,0,0,1,5,2.31,7.47,7.47,0,0,1,5.7-2.31c3.68,0,6.56,2.88,6.56,7.27v5H110Z" transform="translate(0 -2.26)"/></g><g class="cls-1"><path class="cls-2" d="M125.31,20.77H113.66a4.25,4.25,0,0,0,4.48,3.33,3.35,3.35,0,0,0,3.07-1.41h3.94c-.87,2.78-3.68,4.67-7.14,4.67a7.79,7.79,0,0,1-8.06-8,7.69,7.69,0,0,1,7.9-7.94,7.29,7.29,0,0,1,7.55,7.68A11,11,0,0,1,125.31,20.77Zm-11.65-2.91h8.22A3.84,3.84,0,0,0,118,14.3,4.32,4.32,0,0,0,113.66,17.86Z" transform="translate(0 -2.26)"/></g><g class="cls-1"><path class="cls-2" d="M134.62,26.88h-8.54V23.49h2.4V7.55h-2.4V4.16h6.08V23.49h2.46Z" transform="translate(0 -2.26)"/></g><g class="cls-1"><path class="cls-2" d="M138.3,9.31a2.16,2.16,0,0,1-1.54-2,2.48,2.48,0,0,1,5,0c0,.57,0,.86-.8,2.27L139,13.09H136.6Z" transform="translate(0 -2.26)"/></g><g class="cls-1"><path class="cls-2" d="M150,17.92c2.4.42,4.8,1.7,4.8,4.7,0,2.85-2.14,4.74-5.82,4.74a8.23,8.23,0,0,1-5.44-1.86v1.38h-3.36V21.66l3.36,0,0,0c1.34,1.6,2.66,2.82,5,2.82,2,0,2.5-.83,2.5-1.63s-.58-1.47-1.95-1.73l-2.76-.45c-3.26-.57-5.56-2-5.56-4.77,0-3,2.65-4.64,6.17-4.64a5.72,5.72,0,0,1,4.13,1.41v-1h3.33v4.67h-3.33c-1.25-1.37-2.18-2.27-4.06-2.27-1.7,0-2.37.74-2.37,1.57s.54,1.44,2.3,1.76Z" transform="translate(0 -2.26)"/></g><polygon class="cls-2" points="16.14 0 0 8.34 10.06 13.53 16.14 10.39 16.14 0"/><polygon class="cls-2" points="16.14 27.06 16.14 16.67 10.06 13.53 0 18.72 16.14 27.06"/><polygon class="cls-2" points="0 8.34 0 18.72 0 18.72 10.06 13.53 0 8.34 0 8.34"/><g class="cls-1"><path class="cls-2" d="M121.91,36.06h1v2.21a3.47,3.47,0,0,1-2.17.71,2.85,2.85,0,1,1,0-5.7,2.89,2.89,0,0,1,2.23.9l-.65.63a2.09,2.09,0,0,0-1.53-.63,2,2,0,1,0,0,3.9,2.2,2.2,0,0,0,1.14-.29Z" transform="translate(0 -2.26)"/><path class="cls-2" d="M129.61,38.9l-1.14-1.62H127V38.9h-1V33.36h2.28c1.46,0,2.36.74,2.36,2a1.77,1.77,0,0,1-1.18,1.75l1.28,1.82Zm-1.4-4.67H127v2.21h1.2c.91,0,1.37-.41,1.37-1.11S129.12,34.23,128.21,34.23Z" transform="translate(0 -2.26)"/><path class="cls-2" d="M133.12,36.13a3,3,0,1,1,3,2.85A2.83,2.83,0,0,1,133.12,36.13Zm4.93,0a1.95,1.95,0,1,0-2,1.95A1.89,1.89,0,0,0,138.05,36.13Z" transform="translate(0 -2.26)"/><path class="cls-2" d="M141.88,36.48V33.36h1v3.09c0,1.14.51,1.63,1.41,1.63s1.4-.49,1.4-1.63V33.36h1v3.12a2.43,2.43,0,1,1-4.85,0Z" transform="translate(0 -2.26)"/><path class="cls-2" d="M154.56,35.33c0,1.22-.91,2-2.36,2h-1.26v1.6h-1V33.36h2.28C153.65,33.36,154.56,34.1,154.56,35.33Zm-1,0c0-.7-.47-1.1-1.37-1.1h-1.21v2.2h1.21C153.05,36.43,153.52,36,153.52,35.33Z" transform="translate(0 -2.26)"/></g></svg>