<svg id="Layer_1" data-name="Layer 1" xmlns="http://www.w3.org/2000/svg" viewBox="0 0 248.31 58.88"><defs><style>.cls-1{isolation:isolate;}.cls-2{fill:#0e1e43;}.cls-3{fill:#f7931e;}.cls-4{fill:#ee3c24;}.cls-5{fill:#979797;}</style></defs><g class="cls-1"><path class="cls-2" d="M70.23,29.56A17.18,17.18,0,0,1,52.88,43.83c-10.06,0-18.68-7.65-18.68-18.17A18.09,18.09,0,0,1,52.47,7.5c4.82,0,8.93,1.49,11.75,4.31V8.22H70V21.76H64.22c-1.33-5.28-5.95-8.36-11.39-8.36A11.86,11.86,0,0,0,40.67,25.66,11.91,11.91,0,0,0,52.88,37.93c5.39,0,9.7-3.08,11-8.37Z" transform="translate(0 -3.63)"/></g><g class="cls-1"><path class="cls-2" d="M97.28,37.67h3.9v5.44h-9.8V41.42a12.6,12.6,0,0,1-7.44,2.25A12.41,12.41,0,0,1,71.72,31,12.49,12.49,0,0,1,91.38,20.53V18.84h9.8v5.44h-3.9Zm-5.9-2V26.23a9,9,0,0,0-6.57-2.82A7.36,7.36,0,0,0,77.63,31a7.34,7.34,0,0,0,7.18,7.54A9,9,0,0,0,91.38,35.72Z" transform="translate(0 -3.63)"/></g><g class="cls-1"><path class="cls-2" d="M125.5,24.48a33.38,33.38,0,0,0-10,1.75V37.67h6.06v5.44H105.79V37.67h3.85V24.28h-3.85V18.84h9.75v2.62a16.73,16.73,0,0,1,10-3Z" transform="translate(0 -3.63)"/></g><g class="cls-1"><path class="cls-2" d="M176.41,43.11h-13.7V37.67h3.84V30.08c0-4.26-2.15-6.62-5.84-6.62a6.76,6.76,0,0,0-5.6,3.33,13.23,13.23,0,0,1,.31,2.93v8h3.9v5.44h-13.7V37.67h3.85V30.08c0-4.26-2.11-6.62-5.85-6.62-1.75,0-3.65,1-5.29,3.28V37.67h3.95v5.44h-13.7V37.67h3.85V24.28h-3.85V18.84h9.75v1.74a8.45,8.45,0,0,1,6.52-2.51,10,10,0,0,1,8,3.69,12,12,0,0,1,9.14-3.69c5.9,0,10.52,4.62,10.52,11.65v8h3.95Z" transform="translate(0 -3.63)"/></g><g class="cls-1"><path class="cls-2" d="M201,33.31H182.27c.77,3,3,5.34,7.18,5.34,2.31,0,4-.77,4.93-2.26h6.31c-1.39,4.46-5.9,7.49-11.44,7.49A12.5,12.5,0,0,1,176.31,31,12.34,12.34,0,0,1,189,18.27c7.08,0,12.11,5,12.11,12.32A16.85,16.85,0,0,1,201,33.31Zm-18.68-4.67h13.19c-.52-3.28-2.67-5.7-6.32-5.7S183,25.51,182.27,28.64Z" transform="translate(0 -3.63)"/></g><g class="cls-1"><path class="cls-2" d="M215.87,43.11h-13.7V37.67H206V12.12h-3.85V6.68h9.75v31h4Z" transform="translate(0 -3.63)"/></g><g class="cls-1"><path class="cls-2" d="M221.77,14.94a3.49,3.49,0,0,1-2.46-3.29,4,4,0,0,1,7.95,0c0,.93,0,1.39-1.28,3.65L223,21h-3.9Z" transform="translate(0 -3.63)"/></g><g class="cls-1"><path class="cls-2" d="M240.61,28.74c3.85.67,7.7,2.72,7.7,7.55,0,4.56-3.44,7.59-9.34,7.59a13.28,13.28,0,0,1-8.72-3v2.21h-5.39V34.75l5.39,0,.05,0c2.15,2.56,4.26,4.51,8,4.51,3.13,0,4-1.33,4-2.62s-.92-2.36-3.13-2.77l-4.41-.71c-5.23-.93-8.93-3.13-8.93-7.65,0-4.88,4.26-7.44,9.91-7.44a9.12,9.12,0,0,1,6.62,2.26V18.74h5.33v7.49h-5.33c-2-2.21-3.49-3.65-6.52-3.65-2.72,0-3.8,1.18-3.8,2.52s.87,2.31,3.7,2.82Z" transform="translate(0 -3.63)"/></g><polygon class="cls-3" points="25.89 0 0 13.36 16.13 21.69 25.89 16.65 25.89 0"/><polygon class="cls-2" points="25.89 43.38 25.89 26.73 16.13 21.69 0 30.02 25.89 43.38"/><polygon class="cls-4" points="0 13.36 0 30.02 0 30.02 16.13 21.69 0 13.36 0 13.36"/><g class="cls-1"><path class="cls-5" d="M195.48,57.83H197v3.55a5.6,5.6,0,0,1-3.48,1.13,4.58,4.58,0,1,1,0-9.14,4.6,4.6,0,0,1,3.57,1.44l-1,1a3.3,3.3,0,0,0-2.45-1,3.13,3.13,0,1,0,0,6.25,3.58,3.58,0,0,0,1.83-.46Z" transform="translate(0 -3.63)"/><path class="cls-5" d="M207.83,62.38,206,59.78h-2.35v2.59H202V53.49h3.66c2.33,0,3.78,1.2,3.78,3.16a2.84,2.84,0,0,1-1.89,2.81l2,2.92Zm-2.24-7.49h-1.93v3.54h1.93c1.45,0,2.2-.66,2.2-1.78S207,54.89,205.59,54.89Z" transform="translate(0 -3.63)"/><path class="cls-5" d="M213.45,57.94a4.8,4.8,0,1,1,4.79,4.57A4.56,4.56,0,0,1,213.45,57.94Zm7.91,0a3.12,3.12,0,1,0-3.12,3.12A3,3,0,0,0,221.36,57.94Z" transform="translate(0 -3.63)"/><path class="cls-5" d="M227.5,58.51v-5h1.65v4.95c0,1.83.83,2.62,2.26,2.62s2.25-.79,2.25-2.62V53.49h1.62v5c0,2.59-1.46,4-3.88,4S227.5,61.1,227.5,58.51Z" transform="translate(0 -3.63)"/><path class="cls-5" d="M247.83,56.65c0,2-1.45,3.17-3.78,3.17h-2v2.56h-1.65V53.49h3.66C246.38,53.49,247.83,54.69,247.83,56.65Zm-1.66,0c0-1.11-.75-1.76-2.2-1.76H242v3.53H244C245.42,58.42,246.17,57.77,246.17,56.65Z" transform="translate(0 -3.63)"/></g></svg>